<?xml version="1.0" standalone="no"?>
<!DOCTYPE svg PUBLIC "-//W3C//DTD SVG 20010904//EN"
 "http://www.w3.org/TR/2001/REC-SVG-20010904/DTD/svg10.dtd">
<svg version="1.0" xmlns="http://www.w3.org/2000/svg"
 width="800.000000pt" height="715.000000pt" viewBox="0 0 800.000000 715.000000"
 preserveAspectRatio="xMidYMid meet">

<g transform="translate(0.000000,715.000000) scale(0.100000,-0.100000)"
fill="#000000" stroke="none">
<path d="M2550 7139 c-110 -19 -212 -90 -251 -174 -23 -50 -25 -167 -4 -218
31 -75 87 -121 290 -236 165 -95 215 -150 215 -240 0 -53 -15 -89 -53 -129
-77 -80 -289 -83 -426 -6 -24 13 -45 24 -47 24 -2 0 -4 -27 -4 -59 l0 -59 68
-24 c57 -20 87 -23 202 -23 128 0 138 2 198 29 109 51 164 131 166 246 2 140
-62 217 -287 344 -76 43 -156 95 -177 115 -91 87 -71 229 40 291 37 20 62 25
140 28 92 4 134 -4 223 -43 16 -7 18 -2 15 51 l-3 58 -41 12 c-60 17 -200 24
-264 13z"/>
<path d="M1536 7038 c-20 -51 -114 -298 -210 -548 -95 -250 -177 -463 -181
-472 -6 -16 0 -18 52 -18 l59 0 60 168 61 167 243 0 242 0 62 -165 61 -165 59
-3 c34 -2 57 1 55 7 -2 5 -98 259 -214 565 l-210 556 -52 0 -51 0 -36 -92z
m94 -54 c0 -9 43 -134 95 -276 52 -143 95 -263 95 -269 0 -5 -82 -9 -200 -9
-120 0 -200 4 -200 10 0 5 43 127 95 272 52 144 95 268 95 275 0 7 5 13 10 13
6 0 10 -7 10 -16z"/>
<path d="M3180 6566 l0 -566 50 0 50 0 0 220 0 220 93 0 c182 0 300 40 376
126 63 71 84 139 79 254 -3 82 -8 102 -33 149 -34 62 -95 111 -170 137 -39 13
-95 18 -247 22 l-198 4 0 -566z m393 450 c101 -30 151 -101 151 -216 0 -81
-17 -132 -61 -181 -54 -60 -119 -79 -263 -79 l-120 0 0 245 0 245 123 0 c77 0
141 -5 170 -14z"/>
<path d="M4320 6564 l0 -565 53 3 52 3 0 483 c0 324 3 478 10 468 6 -7 156
-226 335 -485 l325 -471 53 0 52 0 0 565 0 565 -50 0 -50 0 -1 -482 c0 -378
-3 -479 -12 -465 -7 11 -156 228 -331 483 l-320 464 -58 0 -58 0 0 -566z"/>
<path d="M5520 6565 l0 -565 285 0 285 0 0 50 0 50 -235 0 -235 0 2 213 3 212
205 5 205 5 1 43 1 42 -209 0 -208 0 0 205 0 205 225 0 225 0 0 50 0 50 -275
0 -275 0 0 -565z"/>
<path d="M6232 7083 l3 -48 163 -3 162 -2 0 -515 0 -515 50 0 50 0 0 515 0
515 162 2 163 3 -1 45 -1 45 -377 3 -377 2 3 -47z"/>
<path d="M3925 6115 c-49 -48 -16 -125 52 -125 37 0 73 38 73 77 0 32 -42 73
-75 73 -14 0 -37 -11 -50 -25z"/>
<path d="M2340 5253 c-869 -89 -1624 -592 -2020 -1346 -152 -289 -252 -603
-296 -927 -21 -151 -23 -505 -5 -660 69 -589 312 -1111 711 -1524 843 -873
2183 -1045 3224 -412 59 36 149 97 200 135 114 86 276 228 276 243 0 6 -42 53
-93 105 l-93 95 -49 -47 c-351 -331 -810 -548 -1288 -610 -148 -19 -447 -19
-587 -1 -428 58 -827 228 -1160 494 -385 309 -664 743 -786 1226 -80 317 -94
735 -34 1077 143 824 748 1509 1567 1773 418 134 892 142 1327 20 340 -96 684
-289 951 -536 l60 -55 94 99 94 99 -49 50 c-126 130 -377 309 -584 418 -277
145 -611 247 -922 280 -89 10 -455 13 -538 4z"/>
<path d="M6799 3831 c-638 -139 -1003 -834 -853 -1625 94 -492 395 -815 833
-891 99 -18 336 -20 448 -4 194 27 385 91 528 178 l80 49 5 151 c3 83 4 151 3
151 -1 0 -39 -25 -84 -55 -160 -109 -332 -182 -504 -211 -125 -22 -341 -14
-445 16 -255 74 -436 259 -523 536 -28 89 -57 263 -57 343 l0 51 887 0 886 0
-6 173 c-11 288 -48 466 -132 644 -53 113 -91 170 -169 251 -107 113 -219 179
-382 228 -78 23 -110 27 -259 30 -139 3 -186 0 -256 -15z m369 -257 c216 -44
373 -188 454 -416 31 -88 58 -234 58 -315 l0 -53 -721 0 -721 0 7 46 c31 208
131 420 258 547 170 170 419 241 665 191z"/>
<path d="M5270 3825 c-135 -37 -258 -119 -350 -234 -51 -63 -126 -201 -149
-273 -7 -21 -17 -38 -22 -38 -5 0 -9 108 -9 260 l0 260 -150 0 -150 0 0 -1225
0 -1225 149 0 150 0 4 683 c3 585 6 697 21 785 67 403 239 664 480 728 109 29
293 11 374 -37 18 -10 34 -19 35 -19 1 0 1 71 0 157 l-2 157 -38 14 c-58 21
-275 26 -343 7z"/>
</g>
</svg>
