<?xml version="1.0" standalone="no"?>
<!DOCTYPE svg PUBLIC "-//W3C//DTD SVG 20010904//EN"
 "http://www.w3.org/TR/2001/REC-SVG-20010904/DTD/svg10.dtd">
<svg version="1.0" xmlns="http://www.w3.org/2000/svg"
 width="1024.000000pt" height="768.000000pt" viewBox="0 0 1024.000000 768.000000"
 preserveAspectRatio="xMidYMid meet">

<g transform="translate(0.000000,768.000000) scale(0.100000,-0.100000)"
fill="#000000" stroke="none">
<path d="M7452 5728 c3 -235 5 -273 18 -273 12 0 16 17 18 83 2 45 7 82 11 82
5 0 46 -38 92 -85 45 -47 91 -85 101 -85 10 0 18 3 18 7 0 4 -39 47 -87 95
l-86 89 54 56 c30 31 67 69 83 84 18 17 25 29 18 33 -18 11 -43 -7 -114 -83
-37 -39 -71 -71 -77 -71 -7 0 -11 56 -11 170 0 164 -1 170 -20 170 -20 0 -20
-5 -18 -272z"/>
<path d="M2402 5713 l3 -258 121 -3 c105 -2 123 0 128 14 11 29 -4 34 -110 34
l-104 0 0 100 0 100 95 0 c88 0 95 1 95 20 0 19 -7 20 -95 20 l-96 0 3 93 3
92 100 5 c80 4 100 8 100 20 0 12 -22 15 -123 18 l-122 3 2 -258z"/>
<path d="M3402 5958 c-7 -7 -12 -17 -12 -24 0 -19 32 -26 48 -10 13 12 13 18
2 30 -15 19 -22 20 -38 4z"/>
<path d="M4340 5968 c0 -2 -1 -118 -1 -258 -1 -241 0 -255 17 -255 17 0 19 9
16 112 l-4 112 99 3 c79 2 98 6 98 18 0 12 -19 16 -95 20 l-95 5 -3 94 c-2 69
1 97 10 103 7 4 55 8 106 8 84 0 93 2 90 18 -3 15 -18 17 -121 20 -64 1 -117
1 -117 0z"/>
<path d="M3182 5908 c-7 -7 -12 -29 -12 -49 0 -34 -3 -38 -27 -41 -38 -4 -40
-43 -3 -43 l25 0 3 -125 c2 -135 10 -164 54 -186 35 -18 53 -18 72 2 25 25 19
34 -24 34 -54 0 -60 16 -60 154 l0 115 48 3 c39 3 47 6 47 23 0 16 -7 20 -35
21 -19 1 -41 2 -47 3 -9 1 -13 18 -13 51 0 51 -6 60 -28 38z"/>
<path d="M3583 5913 c-8 -3 -13 -23 -13 -49 0 -28 -5 -44 -12 -45 -7 -1 -22
-2 -33 -3 -13 0 -20 -8 -20 -21 0 -15 8 -21 33 -23 l32 -3 0 -124 c0 -70 5
-135 11 -148 18 -40 81 -61 107 -35 24 24 13 38 -28 38 -50 0 -52 7 -48 160
l3 114 40 1 c33 0 40 4 40 19 0 16 -8 20 -40 20 l-40 1 -3 53 c-3 52 -5 55
-29 45z"/>
<path d="M2765 5808 c-3 -8 -4 -90 -3 -183 3 -143 5 -170 18 -170 12 0 16 23
20 127 5 124 6 128 34 157 25 26 37 31 77 31 81 0 90 -20 92 -197 2 -111 3
-118 22 -118 19 0 20 7 20 130 0 155 -10 185 -66 213 -33 16 -47 18 -82 10
-23 -5 -51 -18 -63 -29 -27 -25 -32 -24 -36 8 -3 29 -25 43 -33 21z"/>
<path d="M3404 5807 c-2 -7 -3 -89 -2 -181 3 -152 5 -169 21 -172 16 -2 17 12
17 176 0 151 -2 179 -15 184 -9 3 -18 0 -21 -7z"/>
<path d="M3736 5812 c-2 -4 17 -61 43 -127 26 -66 56 -145 68 -176 l21 -55
-23 -50 c-27 -59 -40 -71 -80 -76 -18 -2 -30 -9 -30 -18 0 -33 88 -19 111 18
13 20 92 206 157 369 28 69 41 115 35 119 -18 11 -36 -20 -88 -156 -29 -74
-54 -137 -56 -139 -10 -11 -26 22 -68 143 -25 71 -51 135 -57 142 -13 16 -25
18 -33 6z"/>
<path d="M4693 5813 c-10 -4 -13 -48 -13 -177 0 -95 3 -175 6 -179 3 -3 12 -3
20 0 11 4 14 30 14 114 0 153 25 205 95 201 39 -3 50 8 32 32 -18 24 -58 12
-97 -27 l-30 -31 0 32 c0 33 -7 42 -27 35z"/>
<path d="M5005 5805 c-61 -14 -75 -21 -75 -42 0 -11 6 -14 23 -8 12 4 47 9 78
12 49 4 60 2 78 -16 39 -39 24 -81 -29 -81 -46 0 -123 -24 -150 -47 -62 -51
-24 -152 62 -168 40 -8 109 21 127 52 11 19 13 15 15 -32 1 -11 8 -20 16 -20
12 0 16 22 18 125 2 71 -2 141 -8 162 -17 58 -75 82 -155 63z m125 -194 c0
-74 -45 -116 -119 -112 -50 2 -70 21 -71 63 0 37 30 55 110 66 36 5 68 10 73
11 4 0 7 -12 7 -28z"/>
<path d="M5303 5813 c-10 -4 -13 -50 -13 -185 0 -166 1 -179 18 -176 15 3 18
20 22 137 5 130 5 133 33 157 34 29 97 33 122 7 29 -28 35 -61 35 -184 0 -109
2 -120 18 -117 15 3 18 19 22 128 5 128 14 161 50 180 24 13 76 13 99 0 30
-15 35 -37 40 -175 5 -106 9 -130 21 -130 12 0 16 21 18 119 4 184 -21 236
-113 236 -44 0 -86 -16 -105 -41 -15 -19 -16 -19 -49 10 -18 17 -43 31 -55 33
-33 6 -89 -12 -113 -35 l-23 -20 0 26 c0 28 -8 37 -27 30z"/>
<path d="M5991 5806 c-83 -24 -132 -118 -113 -213 14 -67 36 -97 89 -123 54
-26 85 -25 145 2 49 22 70 57 26 43 -13 -4 -53 -9 -89 -12 -62 -5 -68 -3 -98
23 -17 16 -34 43 -37 61 l-6 32 133 3 134 3 -3 44 c-3 47 -20 87 -49 113 -27
24 -91 36 -132 24z m114 -58 c15 -14 27 -35 28 -53 l2 -30 -107 -3 c-107 -3
-108 -2 -108 20 0 24 35 71 60 81 38 14 99 7 125 -15z"/>
<path d="M6236 5811 c-3 -5 5 -40 18 -78 13 -37 36 -111 51 -163 30 -106 45
-130 69 -111 8 7 17 25 21 39 3 15 20 73 38 128 31 97 48 125 55 87 9 -45 72
-247 80 -255 11 -11 42 1 42 16 0 13 22 89 71 241 19 59 25 93 19 99 -17 17
-27 -4 -68 -149 -22 -76 -44 -141 -48 -142 -5 -2 -27 60 -48 137 -22 77 -45
145 -52 151 -17 14 -23 1 -73 -158 -23 -73 -46 -133 -50 -133 -4 0 -20 46 -35
103 -15 56 -33 122 -40 147 -12 43 -37 63 -50 41z"/>
<path d="M6895 5810 c-89 -19 -134 -79 -135 -176 0 -95 40 -150 126 -174 139
-39 258 114 200 255 -14 32 -60 84 -75 85 -3 1 -24 4 -46 8 -22 5 -53 5 -70 2z
m125 -68 c33 -33 45 -83 36 -147 -10 -62 -50 -95 -115 -95 -104 0 -141 36
-141 138 0 95 37 130 138 131 46 1 58 -3 82 -27z"/>
<path d="M7217 5813 c-8 -12 -9 -55 -8 -216 1 -136 3 -148 19 -145 15 3 18 19
22 128 4 110 8 129 28 158 20 27 30 32 63 32 32 0 39 4 39 19 0 39 -57 33 -98
-10 l-27 -29 -5 32 c-5 30 -23 48 -33 31z"/>
<path d="M3830 4923 c-413 -42 -854 -268 -1114 -569 -135 -156 -186 -232 -266
-394 -85 -171 -134 -323 -174 -539 -24 -125 -22 -464 3 -609 19 -107 45 -217
61 -257 4 -11 18 -49 31 -85 56 -161 195 -397 309 -525 71 -80 207 -208 275
-259 212 -159 472 -276 728 -328 147 -30 477 -37 619 -13 275 45 559 158 745
296 29 22 55 39 57 39 11 0 178 148 184 162 2 5 -25 38 -60 73 l-63 65 -45
-40 c-320 -288 -716 -434 -1125 -417 -135 6 -255 20 -309 36 -17 6 -58 17 -91
26 -139 38 -309 116 -437 202 -100 68 -122 87 -248 213 -300 302 -450 681
-450 1135 0 479 160 856 500 1180 435 415 1099 539 1668 311 153 -61 321 -164
452 -277 l82 -71 67 66 66 67 -57 53 c-31 29 -71 64 -88 77 -18 13 -37 29 -44
35 -6 6 -50 36 -96 66 -227 148 -510 252 -760 279 -74 7 -351 9 -420 2z"/>
<path d="M5854 3942 c-140 -42 -261 -161 -319 -314 -10 -26 -21 -45 -26 -42
-5 3 -9 82 -9 175 l0 170 -97 -3 -98 -3 0 -835 0 -835 96 -3 97 -3 5 468 c5
513 11 581 68 737 46 126 117 219 211 275 73 44 229 47 310 6 17 -8 33 -15 35
-15 1 0 3 47 3 105 l0 105 -27 11 c-53 20 -183 20 -249 1z"/>
<path d="M6870 3937 c-155 -46 -277 -132 -377 -262 -75 -98 -121 -196 -159
-340 -27 -99 -27 -404 0 -520 59 -262 200 -451 404 -542 89 -40 148 -52 272
-59 182 -10 363 27 515 104 108 55 105 50 105 164 0 96 -6 112 -29 84 -15 -17
-109 -74 -175 -105 -134 -62 -328 -86 -462 -56 -110 24 -188 66 -260 140 -103
105 -173 283 -174 443 l0 62 605 0 605 0 0 100 c0 171 -41 364 -104 489 -33
65 -110 159 -161 197 -59 45 -152 90 -222 108 -95 25 -288 21 -383 -7z m338
-173 c174 -48 289 -218 308 -451 l7 -83 -492 0 c-402 0 -493 2 -497 13 -9 25
35 170 78 254 67 133 168 223 296 263 75 24 222 26 300 4z"/>
</g>
</svg>
