<?xml version="1.0" standalone="no"?>
<!DOCTYPE svg PUBLIC "-//W3C//DTD SVG 20010904//EN"
 "http://www.w3.org/TR/2001/REC-SVG-20010904/DTD/svg10.dtd">
<svg version="1.0" xmlns="http://www.w3.org/2000/svg"
 width="300.000000pt" height="300.000000pt" viewBox="0 0 300.000000 300.000000"
 preserveAspectRatio="xMidYMid meet">

<g transform="translate(0.000000,300.000000) scale(0.100000,-0.100000)"
fill="#000000" stroke="none">
<path d="M0 1500 l0 -1500 1495 0 1495 0 0 1500 0 1500 -1495 0 -1495 0 0
-1500z m2320 748 l0 -51 25 23 c33 31 45 17 15 -15 l-24 -25 29 -30 c33 -35
14 -42 -22 -8 l-23 21 0 -21 c0 -12 -4 -22 -10 -22 -6 0 -10 37 -10 90 0 53 4
90 10 90 6 0 10 -23 10 -52z m-1620 32 c0 -5 -16 -10 -36 -10 -33 0 -35 -2
-32 -27 2 -23 9 -29 38 -34 l35 -6 -35 -4 c-31 -4 -35 -7 -35 -34 0 -26 4 -31
35 -36 33 -6 32 -6 -12 -8 l-48 -1 0 85 0 85 45 0 c25 0 45 -4 45 -10z m265 0
c-3 -5 -10 -10 -16 -10 -5 0 -9 5 -9 10 0 6 7 10 16 10 8 0 12 -4 9 -10z m380
0 c-3 -5 -19 -10 -36 -10 -26 0 -29 -3 -29 -30 0 -27 3 -30 30 -30 17 0 30 -4
30 -10 0 -5 -13 -10 -30 -10 -28 0 -30 -3 -30 -35 0 -19 -4 -35 -10 -35 -6 0
-10 35 -10 85 l0 85 46 0 c27 0 43 -4 39 -10z m-439 -40 c8 0 14 -4 14 -10 0
-5 -7 -10 -15 -10 -21 0 -21 -78 0 -86 8 -4 12 -10 9 -15 -3 -5 -13 -5 -25 1
-14 8 -19 21 -19 53 0 24 -5 48 -12 55 -8 8 -8 12 -1 12 6 0 14 10 18 23 l8
22 4 -22 c2 -13 11 -23 19 -23z m130 0 c8 0 14 -4 14 -10 0 -5 -7 -10 -15 -10
-22 0 -21 -76 1 -88 10 -6 13 -12 6 -16 -18 -11 -42 24 -42 63 0 20 -5 42 -12
49 -8 8 -8 12 -1 12 6 0 14 10 18 23 l8 22 4 -22 c2 -13 11 -23 19 -23z m-206
-65 c0 -30 -4 -55 -10 -55 -5 0 -10 23 -10 50 0 38 -4 52 -16 57 -24 9 -44
-23 -44 -69 0 -21 -4 -38 -10 -38 -6 0 -10 27 -10 61 0 45 3 60 13 56 6 -2 21
-1 32 3 38 14 55 -6 55 -65z m710 -2 c0 -31 -3 -53 -6 -50 -4 3 -15 2 -25 -4
-27 -14 -59 6 -59 36 0 19 7 26 33 33 40 10 44 38 5 35 -33 -2 -38 14 -5 19
44 8 57 -8 57 -69z m615 65 c46 -21 47 -78 2 -112 -26 -19 -30 -19 -55 -5 -28
15 -38 45 -28 85 5 20 22 34 53 43 1 1 14 -4 28 -11z m-1195 -58 c0 -33 -4
-60 -10 -60 -6 0 -10 27 -10 60 0 33 4 60 10 60 6 0 10 -27 10 -60z m139 9
l14 -44 18 40 c10 22 20 45 22 50 3 6 7 7 11 4 7 -6 -47 -144 -65 -166 -13
-15 -39 -18 -39 -3 0 6 7 10 15 10 25 0 27 44 6 101 -25 63 -24 62 -9 57 6 -2
18 -24 27 -49z m331 44 c-26 -9 -40 -35 -40 -75 0 -21 -4 -38 -10 -38 -6 0
-10 26 -10 58 l0 59 38 0 c20 1 30 -1 22 -4z m312 -7 c11 -17 9 -106 -2 -106
-5 0 -10 18 -10 39 0 49 -8 71 -26 71 -19 0 -34 -33 -34 -74 0 -20 -4 -36 -10
-36 -5 0 -10 22 -10 49 0 52 -8 65 -34 55 -12 -4 -16 -20 -16 -55 0 -27 -4
-49 -10 -49 -6 0 -10 27 -10 60 l0 59 78 -1 c45 0 80 -5 84 -12z m126 2 c7 -7
12 -20 12 -30 0 -14 -8 -18 -38 -18 -47 0 -55 -6 -41 -32 8 -16 17 -19 40 -14
33 6 40 -9 8 -17 -57 -15 -98 47 -65 98 18 27 63 34 84 13z m57 -34 c12 -40
13 -39 34 19 11 28 31 37 31 13 0 -8 5 -27 11 -43 l11 -28 12 39 c6 22 16 41
23 43 7 3 5 -16 -7 -54 -9 -31 -22 -59 -28 -61 -5 -1 -17 16 -25 40 l-14 43
-13 -43 c-19 -62 -30 -53 -65 57 -5 17 -4 22 6 19 7 -2 18 -22 24 -44z m338
34 c-15 -7 -25 -23 -28 -47 -11 -66 -13 -66 -14 -6 l-1 61 33 1 c30 2 30 1 10
-9z m-943 -304 c69 -20 173 -74 225 -118 l40 -34 -24 -26 -24 -25 -33 29 c-94
82 -204 122 -339 123 -123 1 -210 -27 -310 -97 -139 -100 -215 -252 -215 -431
0 -241 137 -434 363 -510 165 -55 344 -22 492 91 l49 37 18 -23 c10 -12 18
-25 18 -29 -2 -14 -99 -84 -156 -111 -121 -58 -273 -75 -402 -45 -206 49 -382
222 -437 430 -19 76 -19 233 0 310 59 232 252 408 489 446 66 10 176 2 246
-17z m538 -345 l3 -36 -49 5 c-118 11 -162 -86 -162 -360 l0 -138 -35 0 -35 0
0 280 0 280 35 0 35 0 0 -57 0 -58 23 40 c33 57 81 87 137 83 44 -3 45 -4 48
-39z m439 9 c58 -38 94 -116 96 -205 l2 -68 -202 -3 -202 -2 5 -33 c17 -95 69
-160 139 -173 57 -10 133 3 181 31 l44 26 0 -35 c0 -26 -6 -39 -22 -50 -41
-25 -102 -40 -168 -39 -155 0 -239 90 -248 264 -7 144 40 243 141 294 44 23
62 26 123 23 57 -3 79 -9 111 -30z m-1083 -49 c48 -12 87 -44 113 -92 23 -43
23 -170 1 -212 -86 -159 -320 -130 -357 44 -26 124 27 230 129 259 47 14 64
14 114 1z"/>
<path d="M1483 2173 c-15 -5 -17 -29 -4 -37 16 -10 41 5 41 25 0 19 -12 23
-37 12z"/>
<path d="M2102 2218 c-7 -7 -12 -24 -12 -38 0 -48 49 -69 70 -31 14 27 13 47
-6 65 -19 19 -36 20 -52 4z"/>
<path d="M1813 2223 c-26 -10 -13 -33 17 -33 32 0 37 9 18 28 -13 13 -16 13
-35 5z"/>
<path d="M2105 1546 c-39 -17 -70 -52 -90 -98 -29 -70 -33 -68 145 -68 l160 0
0 28 c0 46 -41 115 -80 134 -41 21 -93 22 -135 4z"/>
</g>
</svg>
